<?xml version="1.0" encoding="UTF-8" standalone="no"?><!DOCTYPE svg PUBLIC "-//W3C//DTD SVG 1.1//EN" "http://www.w3.org/Graphics/SVG/1.1/DTD/svg11.dtd"><svg width="100%" height="100%" viewBox="0 0 1125 1500" version="1.1" xmlns="http://www.w3.org/2000/svg" xmlns:xlink="http://www.w3.org/1999/xlink" xml:space="preserve" xmlns:serif="http://www.serif.com/" style="fill-rule:evenodd;clip-rule:evenodd;stroke-linecap:round;stroke-linejoin:round;stroke-miterlimit:1.5;"><g id="potato_pet"><g><path d="M657.38,22.306c298.795,32.102 383.333,237.5 379.167,516.666c-2.488,166.648 66.666,254.167 70.833,400c8.538,298.832 -61.277,517.944 -541.667,541.667c-337.5,16.667 -595.278,-240.845 -541.666,-541.667c75,-420.833 129.166,-970.833 633.333,-916.666Z" style="fill:#d2b48b;"/><clipPath id="_clip1"><path d="M657.38,22.306c298.795,32.102 383.333,237.5 379.167,516.666c-2.488,166.648 66.666,254.167 70.833,400c8.538,298.832 -61.277,517.944 -541.667,541.667c-337.5,16.667 -595.278,-240.845 -541.666,-541.667c75,-420.833 129.166,-970.833 633.333,-916.666Z"/></clipPath><g clip-path="url(#_clip1)"><path d="M1712.8,-316.667l-2133.33,0l0,2133.33l2133.33,0l0,-2133.33Zm-888.755,216.211c298.795,32.102 383.333,237.5 379.166,516.667c-2.487,166.648 66.667,254.167 70.834,400c8.538,298.832 -61.278,517.944 -541.667,541.667c-337.5,16.666 -595.279,-240.845 -541.667,-541.667c75,-420.833 129.167,-970.833 633.334,-916.667Z" style="fill-opacity:0.15;"/></g><path d="M657.38,22.306c298.795,32.102 383.333,237.5 379.167,516.666c-2.488,166.648 66.666,254.167 70.833,400c8.538,298.832 -61.277,517.944 -541.667,541.667c-337.5,16.667 -595.278,-240.845 -541.666,-541.667c75,-420.833 129.166,-970.833 633.333,-916.666Z" style="fill:none;stroke:#140500;stroke-width:33.33px;"/><path d="M652.345,581.405c0.957,-8.292 8.009,-14.738 16.556,-14.738c9.198,0 16.667,7.468 16.667,16.666l0,27.239c0,9.199 -7.469,16.667 -16.667,16.667c-8.547,0 -15.599,-6.447 -16.556,-14.739l-71.356,0c-0.958,8.292 -8.01,14.739 -16.557,14.739c-9.198,0 -16.666,-7.468 -16.666,-16.667l0,-27.239c0,-9.198 7.468,-16.666 16.666,-16.666c8.547,0 15.599,6.446 16.557,14.738l71.356,0Z" style="fill:#140500;"/><g><g><circle cx="419.546" cy="511.212" r="52.879" style="fill:#140500;"/><circle cx="813.788" cy="511.212" r="52.879" style="fill:#140500;"/></g></g></g></g></svg>